<?xml version="1.0" encoding="UTF-8"?>
<svg xmlns="http://www.w3.org/2000/svg" width="177" height="347" viewBox="103 153 177 347">
  <path d="M 251.50 156.00 L 231.00 163.25 L 226.00 192.50 L 218.25 197.00 L 213.75 161.25 L 201.75 153.00 L 189.25 155.00 L 179.00 168.25 L 181.00 183.50 L 207.00 202.50 L 201.25 209.00 L 189.50 200.00 L 170.25 198.00 L 155.00 212.25 L 156.00 225.50 L 165.25 234.75 L 185.50 234.75 L 203.25 219.75 L 212.00 226.50 L 191.00 242.25 L 188.00 261.50 L 200.25 273.75 L 221.50 270.75 L 226.00 275.25 L 199.25 284.00 L 181.25 297.00 L 181.75 271.25 L 172.75 254.25 L 158.50 244.00 L 137.25 243.00 L 111.00 260.25 L 103.00 280.00 L 111.00 317.50 L 137.00 341.25 L 110.25 346.00 L 104.00 354.25 L 105.00 369.50 L 117.25 377.75 L 135.50 373.75 L 148.75 356.50 L 137.75 344.50 L 140.25 340.75 L 169.00 349.25 L 143.00 383.25 L 136.00 405.25 L 136.00 442.50 L 154.00 478.50 L 171.25 492.75 L 192.00 499.75 L 217.50 495.75 L 230.75 485.50 L 240.75 466.50 L 237.75 444.25 L 215.50 424.00 L 186.25 427.00 L 173.00 444.25 L 173.00 461.50 L 181.25 473.75 L 201.50 479.75 L 219.75 465.50 L 220.75 452.25 L 214.50 440.00 L 182.75 440.50 L 197.25 430.75 L 217.50 434.75 L 228.00 447.25 L 230.00 459.50 L 218.50 481.00 L 198.50 488.00 L 184.25 485.00 L 154.75 457.50 L 147.75 435.50 L 148.75 404.25 L 164.25 369.75 L 168.25 408.75 L 209.75 385.50 L 216.75 373.50 L 216.75 359.25 L 206.50 344.00 L 201.50 351.00 L 196.75 344.25 L 231.50 324.75 L 258.75 289.50 L 263.75 254.25 L 234.50 240.00 L 228.25 244.00 L 222.75 233.50 L 232.50 221.75 L 255.25 244.75 L 266.50 244.75 L 278.75 234.50 L 278.75 217.25 L 265.50 206.00 L 237.25 211.00 L 231.75 203.50 L 251.50 196.75 L 265.75 182.50 L 264.75 166.25 Z" fill="#6b3f1f"/>
</svg>
